# AST/ASF file generated using VICON BodyLanguage
# -----------------------------------------------
:version 1.10
:name VICON
:units
  mass 1.0
  length 0.45
  angle deg
:documentation
   .ast/.asf automatically generated from VICON data using
   VICON BodyBuilder and BodyLanguage model FoxedUp or BRILLIANT.MOD
:root
   order TX TY TZ RX RY RZ
   axis XYZ
   position 0 0 0  
   orientation 0 0 0 
:bonedata
  begin
     id 1 
     name lhipjoint
     direction 0.573633 -0.743009 0.344793 
     length 2.46257 
     axis 0 0 0  XYZ
  end
  begin
     id 2 
     name lfemur
     direction 0.34202 -0.939693 0  
     length 7.3842  
     axis 0 0 20  XYZ
    dof rx ry rz
    limits (-160.0 20.0)
           (-70.0 70.0)
           (-60.0 70.0)
  end
  begin
     id 3 
     name ltibia
     direction 0.34202 -0.939693 0   
     length 7.50407   
     axis 0 0 20   XYZ
    dof rx
    limits (-10.0 170.0)
  end
  begin
     id 4 
     name lfoot
     direction 0.110749 -0.304281 0.946123   
     length 1.95925   
     axis -90 7.62852e-016 20   XYZ
    dof rx rz
    limits (-45.0 90.0)
           (-70.0 20.0)
  end
  begin
     id 5 
     name ltoes
     direction 1.53554e-011 -4.21843e-011 1   
     length 0.978318   
     axis -90 7.62852e-016 20   XYZ
    dof rx
    limits (-90.0 20.0)
  end
  begin
     id 6 
     name rhipjoint
     direction -0.488109 -0.791693 0.367385   
     length 2.31113  
     axis 0 0 0  XYZ 
  end
  begin
     id 7 
     name rfemur
     direction -0.34202 -0.939693 0   
     length 7.40965   
     axis 0 0 -20   XYZ
    dof rx ry rz
    limits (-160.0 20.0)
           (-70.0 70.0)
           (-70.0 60.0)
  end
  begin
     id 8 
     name rtibia
     direction -0.34202 -0.939693 0   
     length 7.55548   
     axis 0 0 -20   XYZ
    dof rx
    limits (-10.0 170.0)
 end
 begin
     id 9 
     name rfoot
     direction -0.127594 -0.350561 0.927808   
     length 2.07199  
     axis -90 -7.62852e-016 -20   XYZ
    dof rx rz
    limits (-45.0 90.0)
           (-20.0 70.0)
  end
  begin
     id 10 
     name rtoes
     direction -1.53542e-011 -4.21909e-011 1   
     length 1.02667   
     axis -90 -7.62852e-016 -20   XYZ
    dof rx
    limits (-90.0 20.0)
  end
  begin
     id 11 
     name lowerback
     direction -0.0103342 0.997298 -0.0727278   
     length 2.02836   
     axis 0 0 0   XYZ
    dof rx ry rz
    limits (-20.0 45.0)
           (-30.0 30.0)
           (-30.0 30.0)
  end
  begin
     id 12 
     name upperback
     direction 0.0171146 0.999786 -0.011606   
     length 2.03179   
     axis 0 0 0   XYZ
    dof rx ry rz
    limits (-20.0 45.0)
           (-30.0 30.0)
           (-30.0 30.0)
  end
  begin
     id 13 
     name thorax
     direction 0.0216927 0.999513 0.0224343   
     length 2.03882   
     axis 0 0 0   XYZ
    dof rx ry rz
    limits (-20.0 45.0)
           (-30.0 30.0)
           (-30.0 30.0)
  end
  begin
     id 14 
     name lowerneck
     direction 0.000989287 0.993907 0.110221   
     length 1.75428   
     axis 0 0 0   XYZ
    dof rx ry rz
    limits (-20.0 45.0)
           (-30.0 30.0)
           (-30.0 30.0)
  end
  begin
     id 15 
     name upperneck
     direction -0.0172474 0.994813 -0.100253   
     length 1.77058   
     axis 0 0 0   XYZ
    dof rx ry rz
    limits (-20.0 45.0)
           (-30.0 30.0)
           (-30.0 30.0)
  end
  begin
     id 16
     name head
     direction -0.00486455 0.99894 -0.0457663  
     length 1.77427  
     axis 0 0 0   XYZ
    dof rx ry rz
    limits (-20.0 45.0)
           (-30.0 30.0)
           (-30.0 30.0)
  end
  begin
     id 17 
     name lclavicle
     direction 0.927314 0.333734 -0.169441  
     length 3.97584  
     axis 0 0 0   XYZ
    dof ry rz
    limits (-20.0 10.0)
           (0.0 20.0)
  end
  begin
     id 18 
     name lhumerus
     direction 1 -4.48965e-011 -3.25313e-028   
     length 4.76468   
     axis 180 -30 -90   XYZ
    dof rx ry rz
    limits (-60.0 90.0)
           (-90.0 90.0)
           (-90.0 90.0)
  end
  begin
     id 19
     name lradius
     direction 1 -4.48969e-011 -2.8465e-028   
     length 3.52712   
     axis -180 -30 -90   XYZ
    dof rx
    limits (-10.0 170.0)
  end
  begin
     id 20
     name lwrist
     direction 1 -4.4896e-011 -7.78665e-028   
     length 1.76356   
     axis 1.91374e-015 90 90   XYZ
    dof ry
    limits (-180.0 0.0)
 end
  begin
     id 21 
     name lhand
     direction 1 -4.48959e-011 -1.55733e-027   
     length 0.859564   
     axis 9.9371e-016 90 90   XYZ
    dof rx rz
    limits (-90.0 90.0)
           (-45.0 45.0)
  end
  begin
     id 22 
     name lfingers
     direction 1 -4.48965e-011 -3.11466e-027   
     length 0.693002   
     axis 1.98742e-015 90 90   XYZ
    dof rx
    limits (0.0 90.0)
  end
  begin
     id 23
     name lthumb
     direction 0.707107 -6.34948e-011 0.707107   
     length 0.995017   
     axis -90 45 2.85299e-015   XYZ
    dof rx rz
    limits (-45.0 45.0)
           (-45.0 45.0)
  end
  begin
     id 24 
     name rclavicle
     direction -0.899388 0.348209 -0.264294   
     length 3.68366  
     axis 0 0 0   XYZ 
    dof ry rz
    limits (-10.0 20.0)
           (-20.0 0.0)
  end
  begin
     id 25 
     name rhumerus
     direction -1 -4.48965e-011 -3.01536e-027  
     length 4.90577   
     axis 180 30 90   XYZ
    dof rx ry rz
    limits (-90.0 60.0)
           (-90.0 90.0)
           (-90.0 90.0)
  end
  begin
     id 26 
     name rradius
     direction -1 -4.48966e-011 3.93291e-027   
     length 3.42692   
     axis -180 30 90   XYZ
    dof rx
    limits (-10.0 170.0)
  end
  begin
     id 27 
     name rwrist
     direction -1 -4.48969e-011 -7.78665e-028   
     length 1.71346   
     axis 1.91374e-015 -90 -90   XYZ
    dof ry
    limits (-180.0 0.0)
  end
  begin
     id 28
     name rhand
     direction -1 -4.48967e-011 -1.55733e-027   
     length 0.740957   
     axis 9.9371e-016 -90 -90   XYZ
    dof rx rz
    limits (-90.0 90.0)
           (-45.0 45.0)
  end
  begin
     id 29
     name rfingers
     direction -1 -4.48949e-011 -3.11466e-027   
     length 0.597378   
     axis 1.98742e-015 -90 -90   XYZ
    dof rx
    limits (0.0 90.0)
  end
  begin
     id 30
     name rthumb
     direction -0.707107 -6.34931e-011 0.707107   
     length 0.857719   
     axis -90 -45 -2.85299e-015   XYZ
    dof rx rz
    limits (-45.0 45.0)
           (-45.0 45.0)
  end
:hierarchy
  begin
    root lhipjoint rhipjoint lowerback
    lhipjoint lfemur
    lfemur ltibia
    ltibia lfoot
    lfoot ltoes
    rhipjoint rfemur
    rfemur rtibia
    rtibia rfoot
    rfoot rtoes
    lowerback upperback
    upperback thorax
    thorax lowerneck lclavicle rclavicle
    lowerneck upperneck
    upperneck head
    lclavicle lhumerus
    lhumerus lradius
    lradius lwrist
    lwrist lhand lthumb
    lhand lfingers
    rclavicle rhumerus
    rhumerus rradius
    rradius rwrist
    rwrist rhand rthumb
    rhand rfingers
  end

#!OML:ASF E:\I on waltz\AllaLogoMonkeySwing\Project 1\Capture day 1\Session 1\Subject1.ASF
:FULLY-SPECIFIED
:DEGREES
253
root 14.4254 17.7066 20.5615 -0.186699 47.8428 -1.74366
lowerback 7.40104 3.60769 1.29928
upperback -0.369224 4.97463 1.0488
thorax -4.50826 2.44711 -0.194474
lowerneck -4.62644 13.4782 9.05964
upperneck 12.9284 19.5126 -12.2032
head 6.79714 9.26907 -3.57034
rclavicle 5.04665e-014 -7.95139e-016
rhumerus -28.689 -23.8829 -77.0133
rradius 26.1541
rwrist 1.91471
rhand -8.30751 -36.925
rfingers 7.12502
rthumb 17.6129 -66.1472
lclavicle 5.04665e-014 -7.95139e-016
lhumerus -40.0537 18.0142 81.2426
lradius 39.2818
lwrist -1.50792
lhand -8.13828 -15.414
lfingers 7.12502
lthumb 17.7758 13.7936
rfemur 1.22894 -4.73516 22.7338
rtibia 14.1011
rfoot -14.0462 -12.2527
rtoes 18.2955
lfemur 0.406346 1.13248 -16.4039
ltibia 17.7974
lfoot -19.7326 16.4075
ltoes -42.444
254
root 14.4279 17.7016 20.5421 0.0211624 47.7811 -1.75626
lowerback 7.3463 3.59951 1.59119
upperback -0.438994 4.98726 1.00311
thorax -4.52114 2.44545 -0.402998
lowerneck -4.67912 13.4632 9.00308
upperneck 12.7893 19.4877 -12.2859
head 6.76228 9.25141 -3.59015
rclavicle 3.32219e-014 -1.59028e-015
rhumerus -28.3675 -23.4923 -77.2677
rradius 26.211
rwrist 1.63947
rhand -8.88767 -36.7829
rfingers 7.12502
rthumb 17.0546 -66.0543
lclavicle 3.32219e-014 -1.59028e-015
lhumerus -40.147 18.1662 80.8549
lradius 39.303
lwrist -1.44513
lhand -7.93272 -15.203
lfingers 7.12502
lthumb 17.9736 13.9865
rfemur 0.793877 -4.90491 22.6579
rtibia 14.3604
rfoot -14.0799 -12.0334
rtoes 18.26
lfemur 0.0680368 1.09883 -16.524
ltibia 17.87
lfoot -19.6303 16.2849
ltoes -42.5268
255
root 14.427 17.7013 20.5414 -0.00296396 47.8665 -1.81267
lowerback 7.38705 3.57129 1.70473
upperback -0.447317 4.96112 1.00751
thorax -4.54392 2.42946 -0.461522
lowerneck -4.74836 13.4584 8.9781
upperneck 12.6886 19.4702 -12.3245
head 6.74181 9.23914 -3.59785
rclavicle 1.1373e-013 4.37326e-015
rhumerus -28.1532 -23.2653 -77.4431
rradius 26.2632
rwrist 1.66476
rhand -9.30169 -36.6492
rfingers 7.12502
rthumb 16.656 -65.9545
lclavicle 1.1373e-013 4.37326e-015
lhumerus -40.2936 18.3602 80.4448
lradius 39.2597
lwrist -1.6435
lhand -8.04435 -15.0486
lfingers 7.12502
lthumb 17.8662 14.1508
rfemur 0.771887 -4.8996 22.7148
rtibia 14.3584
rfoot -14.093 -12.1393
rtoes 18.3511
lfemur 0.0302079 1.10506 -16.4772
ltibia 17.8454
lfoot -19.7104 16.2778
ltoes -42.5418
256
root 14.4273 17.7017 20.5416 0.0680177 47.9654 -1.75721
lowerback 7.41228 3.56947 1.74445
upperback -0.457373 4.96206 0.988114
thorax -4.56347 2.42834 -0.505695
lowerneck -4.86641 13.3977 8.89344
upperneck 12.6463 19.3865 -12.3609
head 6.73478 9.18929 -3.60073
rclavicle -5.72748e-014 3.97569e-015
rhumerus -28.0406 -23.1033 -77.5751
rradius 26.4114
rwrist 1.70465
rhand -9.31416 -36.6693
rfingers 7.12502
rthumb 16.644 -65.9757
lclavicle -5.72748e-014 3.97569e-015
lhumerus -40.3933 18.4296 80.1089
lradius 39.1101
lwrist -1.85018
lhand -8.24166 -15.0712
lfingers 7.12502
lthumb 17.6763 14.1453
rfemur 0.754783 -4.92409 22.6799
rtibia 14.3391
rfoot -14.0755 -12.2451
rtoes 18.2657
lfemur -0.016197 1.04184 -16.5287
ltibia 17.8337
lfoot -19.7246 16.2922
ltoes -42.4938
257
root 14.4291 17.7024 20.5414 0.189728 48.0494 -1.65666
lowerback 7.42084 3.56826 1.74025
upperback -0.470732 4.95943 0.965935
thorax -4.58061 2.4265 -0.527064
lowerneck -4.93218 13.3219 8.87768
upperneck 12.4874 19.2778 -12.4881
head 6.69528 9.13066 -3.64985
rclavicle -4.51738e-014 -4.77083e-015
rhumerus -28.0073 -22.9249 -77.7161
rradius 26.6185
rwrist 1.61889
rhand -9.15442 -36.7084
rfingers 7.12502
rthumb 16.7978 -66.0018
lclavicle -4.51738e-014 -4.77083e-015
lhumerus -40.5028 18.4686 79.8007
lradius 38.9743
lwrist -1.84809
lhand -8.4286 -15.0879
lfingers 7.12502
lthumb 17.4964 14.1447
rfemur 0.721834 -4.99515 22.5897
rtibia 14.3243
rfoot -14.0611 -12.2604
rtoes 18.2482
lfemur -0.0603277 1.01128 -16.616
ltibia 17.8025
lfoot -19.7442 16.3208
ltoes -42.6097
258
root 14.4312 17.7023 20.544 0.291748 48.1452 -1.56362
lowerback 7.427 3.57501 1.71114
upperback -0.47057 4.96465 0.940846
thorax -4.584 2.42937 -0.537803
lowerneck -4.93248 13.2339 8.92627
upperneck 12.2186 19.1507 -12.7088
head 6.62361 9.06681 -3.74532
rclavicle 1.0958e-014 0
rhumerus -28.0206 -22.9494 -77.7983
rradius 26.7435
rwrist 1.67921
rhand -9.09169 -36.8045
rfingers 7.12502
rthumb 16.8582 -66.0928
lclavicle 1.0958e-014 0
lhumerus -40.6425 18.5173 79.5044
lradius 38.8822
lwrist -1.8368
lhand -8.5627 -15.0141
lfingers 7.12502
lthumb 17.3673 14.23
rfemur 0.715807 -5.02343 22.5133
rtibia 14.2971
rfoot -14.0824 -12.3078
rtoes 18.392
lfemur -0.0515482 1.00404 -16.6663
ltibia 17.7224
lfoot -19.8518 16.3274
ltoes -42.7354
259
root 14.4349 17.7024 20.5482 0.527336 48.2807 -1.29346
lowerback 7.39459 3.59092 1.54427
upperback -0.452825 4.96693 0.884068
thorax -4.55617 2.43422 -0.501329
lowerneck -5.01108 13.1598 8.93924
upperneck 12.0345 19.0374 -12.8438
head 6.58127 9.00683 -3.80083
rclavicle -5.58585e-014 1.74931e-014
rhumerus -28.0194 -22.9441 -77.8747
rradius 26.7592
rwrist 1.71346
rhand -9.14228 -37.0356
rfingers 7.12502
rthumb 16.8095 -66.3279
lclavicle -5.58585e-014 1.74931e-014
lhumerus -40.735 18.5602 79.2577
lradius 38.7435
lwrist -1.87806
lhand -8.72662 -14.8525
lfingers 7.12502
lthumb 17.2096 14.4055
rfemur 0.723388 -5.07839 22.2966
rtibia 14.276
rfoot -14.1254 -12.3835
rtoes 18.6164
lfemur -0.0321368 0.910339 -16.8689
ltibia 17.6453
lfoot -19.9367 16.3293
ltoes -42.6013
